PathFileType	4	(X/Y/Z)	C:\Users\chris\Documents\GitHub\baseballds\vids\pitch5_Sports2D\pitch5_Sports2D_px_person01.trc
DataRate	CameraRate	NumFrames	NumMarkers	Units	OrigDataRate	OrigDataStartFrame	OrigNumFrames
30	30	13	22	m	30	0	149
Frame#	Time	Hip			RHip			RKnee			RAnkle			RBigToe			RSmallToe			RHeel			LHip			LKnee			LAnkle			LBigToe			LSmallToe			LHeel			Neck			Head			Nose			RShoulder			RElbow			RWrist			LShoulder			LElbow			LWrist		
		X1	Y1	Z1	X2	Y2	Z2	X3	Y3	Z3	X4	Y4	Z4	X5	Y5	Z5	X6	Y6	Z6	X7	Y7	Z7	X8	Y8	Z8	X9	Y9	Z9	X10	Y10	Z10	X11	Y11	Z11	X12	Y12	Z12	X13	Y13	Z13	X14	Y14	Z14	X15	Y15	Z15	X16	Y16	Z16	X17	Y17	Z17	X18	Y18	Z18	X19	Y19	Z19	X20	Y20	Z20	X21	Y21	Z21	X22	Y22	Z22
0	0.0	404.5635021999624	519.7219992517994	0.0	379.8610406243752	525.5342261728154	0.0	366.7830294538629	624.344891115528	0.0	358.06441004488795	712.9834819444277	0.0	376.9549197077481	746.4047718042015	0.0	356.61159313145595	749.3109819093586	0.0	352.25200485284586	727.5145108025688	0.0	427.81303372004254	525.5343786962084	0.0	433.62552009760867	619.9854644571271	0.0	433.6255593660158	702.811934492565	0.0	484.48377052068565	723.1552372479207	0.0	480.1245424761821	718.7960110862205	0.0	424.90697108150056	720.2489966275873	0.0	401.6573440728249	361.334533330585	0.0	429.2662819385918	303.21073401352965	0.0	445.2501873054529	342.4442163534097	0.0	355.1584817314237	380.22480783763467	0.0	333.3618358100738	451.4263426660933	0.0	350.7990627381113	508.0969298312645	0.0	427.81303397024834	384.5840420146616	0.0	429.2662859957737	444.16102363964796	0.0	411.82901101950563	483.3945621742566	0.0
1	0.03333333333333333	404.6618373527335	520.8552253348864	0.0	380.58611639383537	527.2006693389587	0.0	366.7811170777553	625.3477887882239	0.0	358.55184518219573	714.7297039364355	0.0	377.4380665169683	745.7503899376347	0.0	358.98577594018934	747.5500194399871	0.0	351.53954135045785	729.1147255951889	0.0	428.82038976539945	526.7323095519017	0.0	432.50127490926957	621.2337874799067	0.0	434.3124953027793	701.9543739607647	0.0	482.2358279359004	722.5932474139682	0.0	478.13731565706706	718.0238395350506	0.0	425.5075174240202	720.0290646060644	0.0	401.97820186335787	362.0289672999309	0.0	427.31991164952865	304.5361111209381	0.0	444.535693828429	342.49840071050255	0.0	355.28867284222565	381.1811638369876	0.0	334.18162845423353	453.258524700786	0.0	350.69715200459973	508.74669446376663	0.0	427.9804065877665	384.35753864945855	0.0	426.8041634255109	446.8388204129321	0.0	395.1211561668315	489.90638518913335	0.0
2	0.06666666666666667	404.6870818089285	521.9734142560318	0.0	380.73148782769465	528.5750518092711	0.0	366.8034060460904	626.663520625641	0.0	358.6703178238263	715.9429220943017	0.0	377.75088036295256	746.0883507317167	0.0	360.05167674464394	747.4793084240425	0.0	350.8865122432269	730.4362342937108	0.0	428.9140914492675	528.287270557246	0.0	432.0328526473103	622.5016536969143	0.0	434.41621500847907	702.2899530099405	0.0	481.04671280055715	722.6546063173025	0.0	477.4292126527564	718.2477840514746	0.0	425.2746537258646	720.8574966080064	0.0	401.96809307139904	362.73650903583194	0.0	426.5456234507201	305.83667130383196	0.0	444.3616403616529	343.6288386506701	0.0	355.63945848156897	382.06552803796194	0.0	334.71649304353167	454.1739470277895	0.0	350.4760216702458	509.0664324616476	0.0	427.9807271816318	384.7756394301815	0.0	426.15376623662837	448.6713879937851	0.0	387.28685154711405	493.20825266204076	0.0
3	0.1	404.8295443150811	522.4217972474112	0.0	380.8214420130112	527.957539816015	0.0	366.93678193807233	627.2987821220026	0.0	358.3682129393577	716.966228642428	0.0	377.8983486826676	747.1418742209628	0.0	359.99697413719963	748.7822383643736	0.0	350.53232496123724	731.4869564965056	0.0	428.24644027524266	528.1663234927493	0.0	432.17273464598594	622.7965755178459	0.0	434.10943803089185	703.3934978170739	0.0	480.88494937901265	723.4746373706769	0.0	477.8271703094846	719.2131597127669	0.0	424.67321405999456	722.0677983978791	0.0	401.65840199064735	363.8768028383465	0.0	427.67505616976115	306.45976260742896	0.0	444.2852001988522	345.12739523696064	0.0	355.90760644455196	382.6251307062761	0.0	334.6471441760371	454.377431168977	0.0	350.0614679328126	509.0820054823774	0.0	427.679736152987	385.5855529300147	0.0	426.3902435381151	449.088550887337	0.0	387.41607780204197	493.10394979852816	0.0
4	0.13333333333333333	405.1482427266934	522.3992640004659	0.0	381.3807187487964	526.2557042053666	0.0	367.1682752408003	627.132177492897	0.0	357.969813405156	718.2390734634624	0.0	377.782740470749	748.3136515273986	0.0	359.90624253114856	750.1984552636416	0.0	350.6029960413048	732.4213918342523	0.0	427.84913691802325	526.5167145888296	0.0	432.41316331364766	622.461189776607	0.0	433.9565182418928	704.304862613116	0.0	480.91687886176663	724.6145117477445	0.0	478.0624303706182	720.0488509177669	0.0	424.6116835468957	722.7694672306309	0.0	401.3486026318791	365.40189766701945	0.0	429.23918504834063	306.6866065548623	0.0	444.01476698662873	346.034896509761	0.0	355.76397174037805	383.08584397296363	0.0	334.1627991742074	454.8793095983085	0.0	349.7450596968703	509.54191801852045	0.0	427.3227535174833	386.43874715118955	0.0	425.67928485985584	448.81202965425933	0.0	388.96260869069386	492.50542036892097	0.0
5	0.16666666666666666	405.30858738683355	522.9837236163033	0.0	381.87702331268207	526.4376542712804	0.0	367.2914581350186	627.3149134274554	0.0	357.7352493230191	719.4160517332576	0.0	377.30720737920666	749.3748698879092	0.0	360.0729311511779	751.11321926096	0.0	350.8336279633523	733.1579267263778	0.0	428.2511972855832	526.2270495152934	0.0	432.38448997854175	623.0012559788554	0.0	434.04809148399977	704.9397634514185	0.0	480.62676001032	725.5389794345331	0.0	477.47304700030736	720.5554128428973	0.0	425.0255714755226	723.2087489064777	0.0	401.2638026446685	366.71196093272937	0.0	429.41330140484854	307.47045306511427	0.0	443.87486104920595	346.6784558223401	0.0	355.3554231879335	383.8992749585724	0.0	333.95906522395654	456.1739563407996	0.0	349.817401813317	510.87247808616837	0.0	427.4266758182061	387.3905454224003	0.0	424.6702168955615	449.16699629194807	0.0	388.81402547977086	493.5830437896258	0.0
6	0.2	405.0766724229404	524.0903354401311	0.0	381.638549902255	528.190569924521	0.0	367.1850377764347	628.0916662630775	0.0	357.52773097629915	719.8762245946618	0.0	376.74832740247285	750.0516067174232	0.0	359.75358293247376	751.6107034370277	0.0	350.82291512844307	733.4632688705003	0.0	428.8168492902123	527.5620748274021	0.0	432.1324846579055	624.1655014966436	0.0	433.9950384807965	705.60326173004	0.0	480.1689270579045	726.1920161069098	0.0	476.72186864099103	721.2697261471017	0.0	425.18974960084	723.6841287243576	0.0	401.40046438041213	367.6551802443016	0.0	428.8985876222318	308.60048515816834	0.0	443.85629524203523	347.6677619227335	0.0	355.12677816303784	384.8756342763909	0.0	334.181630679067	457.6475292697056	0.0	349.9958232090517	512.3438532571648	0.0	427.9925142468102	388.3287923345205	0.0	425.8092725613648	450.2599496748179	0.0	388.86787523817503	495.1007940073505	0.0
7	0.23333333333333334	404.6694779800916	524.6753654388007	0.0	380.97914937694406	529.0718950456878	0.0	366.979320747395	628.8367957511379	0.0	357.20345730907195	719.7586313886321	0.0	376.4032293950005	750.201193838345	0.0	358.67597443918106	751.9050884749206	0.0	350.52608080110394	733.495234354466	0.0	428.8818731589559	528.4497058855142	0.0	432.01806137127556	624.5615575501068	0.0	433.7386398927241	706.1201565202584	0.0	479.7498891817533	726.9514215895229	0.0	476.48788711395065	722.4189134600393	0.0	425.00256323935025	723.847920533517	0.0	401.5017207226499	368.52337808086446	0.0	429.2413033551943	309.3678234455955	0.0	443.5655911087869	349.09977404434386	0.0	355.2250099489298	385.62391731075354	0.0	334.21827941964625	458.5441935742053	0.0	349.98851433927155	513.3438093598968	0.0	428.3879706920983	389.03039460099217	0.0	429.2919966799592	451.0832022092627	0.0	391.2853664904644	495.0991893105201	0.0
8	0.26666666666666666	404.47973240208046	524.6748597077801	0.0	380.7086398438187	528.9608871250947	0.0	366.9071202733123	629.204763135133	0.0	357.042578317408	720.0805574278572	0.0	376.17947845118994	750.4177702269568	0.0	357.74140058926105	752.2705711083383	0.0	350.35873136538703	733.9483127602699	0.0	428.7330150436099	528.5351397100474	0.0	432.2260757494624	624.1573343937113	0.0	433.638650341605	706.2695619690274	0.0	479.60107030248685	728.0024906029279	0.0	476.55262378236154	723.4907534199176	0.0	425.0124827877595	723.7737958456255	0.0	401.3441150219023	369.33504918043053	0.0	430.3268280327454	309.8612325660862	0.0	443.03113046185314	350.7331761712296	0.0	355.2513798736478	386.2551181683353	0.0	333.85027956763696	458.9402839751267	0.0	350.0025937432096	514.3302637630358	0.0	428.27540767312837	389.5676563795479	0.0	431.7096064958525	450.9910420956519	0.0	394.6247388875664	494.07928363265677	0.0
9	0.3	404.6290250339516	524.8841305595289	0.0	380.977428745697	529.2304480971102	0.0	367.10965858339466	629.1809358768654	0.0	357.26178618190676	721.3766574291317	0.0	375.9011838608445	751.4695706390016	0.0	357.69608796950126	753.0595123236171	0.0	350.55323910799115	735.2528614219987	0.0	428.8787953658823	528.7348246309255	0.0	432.4283594174008	623.968726510331	0.0	433.702311501955	706.483733806343	0.0	479.9761138649174	729.1072055676814	0.0	476.5841921819966	724.1511956012945	0.0	425.31346782453903	724.3276513109531	0.0	401.15530006299696	369.9176016288313	0.0	431.07091135664	310.4740818241499	0.0	442.677586655061	351.95320476974456	0.0	354.9877587729367	387.00858745857545	0.0	333.5703338475443	459.40491622612467	0.0	350.0644228481276	515.8301492822447	0.0	428.00504871082774	390.0686677211968	0.0	430.66688775225504	450.45912371281986	0.0	395.8765136381622	493.7945197042411	0.0
10	0.3333333333333333	404.83808337552296	525.655778191517	0.0	381.3065947516705	530.1961837636389	0.0	367.4165269563505	629.2618707460736	0.0	357.4803279294403	722.8284740787474	0.0	375.7876568842785	753.1028237686035	0.0	358.30447127931836	754.2795356345534	0.0	350.68315008488554	736.8828314751942	0.0	429.17218665998735	529.3869565603472	0.0	432.26002743647314	624.5443254368154	0.0	433.65368545168167	707.293237960977	0.0	480.53460368554255	730.1000792675131	0.0	476.69818886545187	724.8779563493779	0.0	425.45921396583276	725.8825230059333	0.0	401.2174686374737	370.3917665366778	0.0	431.11581681054724	311.30720361597344	0.0	442.62468265460507	352.3989921600979	0.0	354.85898027745026	387.9032721115385	0.0	333.62569066657875	460.20930824253355	0.0	349.8611858283076	517.499089281349	0.0	427.8919270892957	390.5612711220268	0.0	428.4969647922525	450.46168802718876	0.0	395.0405653452329	494.593401642288	0.0
11	0.36666666666666664	404.9121313408368	526.6994559367054	0.0	381.42929806487183	531.385591932272	0.0	367.49608917603706	630.0686506136004	0.0	357.3999985129103	723.7027439818407	0.0	376.1916725226774	754.3812252250468	0.0	359.11063562075054	755.5275978803678	0.0	350.46346960083105	738.0611389258451	0.0	429.24147809173206	530.4289609684233	0.0	431.95898263666004	625.7259589629011	0.0	433.61602257589266	708.5739759756134	0.0	480.6565201206619	731.042562308739	0.0	476.9874308651147	726.0445426261341	0.0	425.4349660465214	727.6573132105506	0.0	401.3590612256099	371.078219958241	0.0	431.0298676837219	312.1849509395292	0.0	442.7288117406851	352.7113786689454	0.0	355.12662340878126	388.9241645929868	0.0	333.7189958099916	461.10898113957205	0.0	349.5097143117848	518.6824562348054	0.0	427.821371214842	391.16793239627685	0.0	428.1632274427316	451.22135080352155	0.0	394.4713341724582	495.5570734765502	0.0
12	0.4	405.003094996158	527.6413423549991	0.0	381.46393104756095	532.5654502973418	0.0	367.3678841863365	631.3050898447028	0.0	357.3510810269044	724.3805755636573	0.0	376.7603046919783	755.0173969886741	0.0	359.70765613279593	756.3348212856931	0.0	350.36304447008774	738.699068147394	0.0	429.12883860076363	531.6234378559558	0.0	432.07463195787375	627.0356111844745	0.0	433.8611217498855	709.8255372327509	0.0	480.2939626267935	731.9059351906712	0.0	477.2374648487849	727.1294410383205	0.0	425.62985825597997	728.6937453702125	0.0	401.43958788668385	372.08884972998095	0.0	431.26795943687273	312.96936199750695	0.0	443.0387762354282	353.82669570727734	0.0	355.5147745684674	390.0127474920922	0.0	333.74956535428385	461.69885150885557	0.0	349.44969538552937	519.1570111744742	0.0	427.7025827430898	392.1013599157765	0.0	428.713024300222	452.3413084498314	0.0	394.526192870812	496.3783860571898	0.0
